<svg width="640" height="640" viewBox="0 0 640 640" fill="none" xmlns="http://www.w3.org/2000/svg">
<g clip-path="url(#clip0_2_60)">
<path d="M614.704 0H25.2964C11.3256 0 0 11.3256 0 25.2964V614.704C0 628.674 11.3256 640 25.2964 640H614.704C628.674 640 640 628.674 640 614.704V25.2964C640 11.3256 628.674 0 614.704 0Z" fill="#1D1D1D"/>
<path fill-rule="evenodd" clip-rule="evenodd" d="M221.327 205.754L371.731 120.405C372.452 119.996 373.307 119.892 374.105 120.115L524.073 162.069C526.752 162.819 527.177 166.438 524.744 167.787L330.083 275.788C328.574 276.625 328.035 278.531 328.881 280.035L415.673 434.27C416.517 435.769 415.984 437.67 414.482 438.511L269.729 519.603C269.011 520.005 268.164 520.107 267.372 519.886L116.277 477.741C113.59 476.992 113.17 473.36 115.614 472.016L305.718 367.514C307.238 366.679 307.782 364.763 306.927 363.254L220.155 209.994C219.309 208.499 219.833 206.602 221.327 205.754ZM254.594 212.386L356.538 154.862C359.337 153.282 362.402 156.466 360.717 159.203L303.717 251.821C302.745 253.401 300.614 253.784 299.152 252.643L254.208 217.549C252.459 216.183 252.661 213.477 254.594 212.386ZM277.118 490.848L380.549 432.484C382.959 431.125 382.529 427.532 379.866 426.779L299.228 403.987C297.572 403.519 295.85 404.483 295.385 406.14L272.592 487.296C271.842 489.969 274.7 492.212 277.118 490.848Z" fill="#F8F8F8"/>
</g>
<defs>
<clipPath id="clip0_2_60">
<rect width="640" height="640" fill="white"/>
</clipPath>
</defs>
</svg>
