<svg width="120" height="120" viewBox="0 0 120 120" fill="none" xmlns="http://www.w3.org/2000/svg">
<path d="M120 60C120 93.1371 93.1371 120 60 120C26.8629 120 0 93.1371 0 60C0 26.8629 26.8629 0 60 0C93.1371 0 120 26.8629 120 60Z" fill="black"/>
<path fill-rule="evenodd" clip-rule="evenodd" d="M77.8362 24.1122H76.8226C57.6218 24.1122 42.0561 39.7152 42.0561 58.9621V60.0287H59.9461L77.8362 42.2417V24.1122ZM74.8669 27.1541V41.0023L58.7245 57.0523H45.0848C45.5425 49.2582 48.7882 41.9945 54.3404 36.429C59.8837 30.8724 67.1093 27.6219 74.8669 27.1541Z" fill="white"/>
<path d="M77.8391 60.0289H59.9491L42.0561 77.8159V95.9455H43.0726C62.2734 95.9455 77.8391 80.3424 77.8391 61.0956V60.0289Z" fill="white"/>
</svg>
