<svg width="413" height="400" viewBox="0 0 413 400" fill="none" xmlns="http://www.w3.org/2000/svg">
<path fill-rule="evenodd" clip-rule="evenodd" d="M107.327 85.7543L257.731 0.405413C258.452 -0.00380182 259.307 -0.108311 260.105 0.11507L410.073 42.0693C412.752 42.8186 413.177 46.4378 410.744 47.7873L216.083 155.788C214.574 156.625 214.035 158.531 214.881 160.035L301.673 314.27C302.517 315.769 301.984 317.67 300.482 318.511L155.729 399.603C155.011 400.005 154.164 400.107 153.372 399.886L2.27654 357.741C-0.409528 356.992 -0.830173 353.36 1.61355 352.016L191.718 247.514C193.238 246.679 193.782 244.763 192.927 243.254L106.155 89.994C105.309 88.4995 105.833 86.602 107.327 85.7543ZM140.594 92.3859L242.538 34.8619C245.337 33.2824 248.402 36.466 246.717 39.2031L189.717 131.821C188.745 133.401 186.614 133.784 185.152 132.643L140.208 97.5489C138.459 96.1828 138.661 93.4767 140.594 92.3859ZM163.118 370.848L266.549 312.484C268.959 311.125 268.529 307.532 265.866 306.779L185.228 283.987C183.572 283.519 181.85 284.483 181.385 286.14L158.592 367.296C157.842 369.969 160.7 372.212 163.118 370.848Z" fill="#F8F8F8"/>
</svg>
